<svg xmlns="http://www.w3.org/2000/svg" xmlns:xlink="http://www.w3.org/1999/xlink" width="500" zoomAndPan="magnify" viewBox="0 0 375 374.999991" height="500" preserveAspectRatio="xMidYMid meet" version="1.0"><defs><clipPath id="3e69581398"><path d="M 112.5 155.75 L 262.5 155.75 L 262.5 219.5 L 112.5 219.5 Z M 112.5 155.75 " clip-rule="nonzero"/></clipPath></defs><g clip-path="url(#3e69581398)"><path fill="#ffffff" d="M 173.824219 170.632812 C 173.824219 170.632812 174.40625 169.761719 174.886719 169.085938 C 175.757812 167.925781 177.304688 166.285156 178.5625 165.21875 C 178.949219 164.929688 179.332031 164.542969 179.332031 164.542969 C 179.332031 164.542969 178.65625 164.640625 178.269531 164.738281 C 177.402344 164.929688 176.046875 165.800781 175.371094 166.378906 C 174.308594 167.347656 173.050781 168.796875 173.632812 170.246094 C 173.730469 170.34375 173.824219 170.632812 173.824219 170.632812 M 179.914062 172.273438 C 181.652344 172.179688 183.296875 171.695312 184.746094 170.824219 C 186.195312 169.957031 188.417969 168.410156 188.226562 166.476562 C 188.128906 165.898438 187.742188 165.414062 187.257812 165.21875 C 186.582031 164.929688 186.292969 165.027344 185.421875 165.21875 C 184.84375 165.414062 184.550781 165.511719 183.972656 165.800781 C 182.234375 166.765625 179.816406 168.894531 178.5625 170.535156 C 178.269531 170.921875 177.980469 171.40625 177.691406 171.695312 C 177.496094 171.890625 177.402344 172.082031 177.402344 172.082031 C 177.496094 172.273438 179.238281 172.273438 179.914062 172.273438 M 175.46875 175.464844 C 175.273438 175.65625 175.082031 176.140625 174.886719 176.429688 C 174.792969 176.625 174.597656 176.816406 174.503906 176.914062 C 174.019531 177.203125 173.632812 177.300781 173.246094 176.914062 C 172.664062 176.335938 172.277344 175.5625 172.277344 174.691406 L 172.277344 173.628906 C 172.183594 173.144531 171.699219 172.566406 171.410156 172.082031 C 171.121094 171.503906 170.828125 170.535156 170.828125 169.859375 C 170.734375 167.828125 171.796875 165.992188 173.148438 164.542969 C 174.503906 163.09375 176.339844 161.839844 178.269531 161.066406 C 180.105469 160.292969 182.8125 159.710938 184.84375 160.484375 C 185.519531 160.679688 186.386719 161.257812 186.871094 161.839844 C 186.96875 161.933594 187.066406 162.128906 187.160156 162.128906 C 187.257812 162.226562 187.453125 162.226562 187.644531 162.226562 C 188.320312 162.320312 189.191406 162.804688 189.578125 163.191406 C 190.351562 163.867188 190.738281 164.449219 190.929688 165.414062 C 191.316406 167.25 190.253906 169.28125 189.09375 170.535156 C 187.066406 172.660156 184.9375 174.113281 182.328125 175.175781 C 181.171875 175.65625 179.332031 176.042969 178.078125 175.949219 C 177.691406 175.949219 177.207031 175.851562 176.820312 175.753906 C 176.628906 175.753906 175.855469 175.5625 175.757812 175.464844 C 175.660156 175.5625 175.566406 175.464844 175.46875 175.464844 M 177.882812 179.523438 C 177.980469 179.523438 178.078125 179.621094 178.175781 179.621094 C 179.140625 180.007812 179.527344 180.875 179.71875 181.746094 C 180.300781 183.96875 180.492188 188.800781 180.589844 190.636719 C 180.6875 192.085938 180.6875 193.4375 180.785156 194.890625 C 180.878906 196.046875 180.878906 197.691406 180.6875 198.753906 C 180.589844 199.140625 180.300781 199.625 179.914062 199.914062 C 179.429688 200.203125 178.464844 200.203125 177.882812 200.109375 C 176.53125 199.816406 176.046875 198.949219 175.855469 197.59375 C 175.371094 194.40625 175.660156 188.125 175.855469 185.417969 C 175.953125 184.546875 176.242188 181.746094 176.726562 180.585938 C 176.917969 180.296875 177.304688 179.425781 177.882812 179.523438 M 136.039062 184.355469 C 136.039062 184.355469 134.011719 184.453125 132.65625 184.644531 C 130.917969 184.839844 127.632812 185.417969 125.699219 186.09375 C 125.121094 186.289062 123.960938 186.769531 123.863281 187.351562 C 123.765625 187.929688 124.152344 188.414062 124.539062 188.898438 C 124.828125 189.1875 126.183594 190.539062 126.570312 190.832031 C 128.210938 192.183594 131.496094 194.308594 133.914062 195.277344 C 134.78125 195.664062 136.136719 196.144531 136.136719 196.144531 C 136.136719 196.144531 136.039062 192.183594 136.039062 188.316406 C 135.941406 186.382812 136.039062 184.355469 136.039062 184.355469 M 172.859375 185.902344 C 172.957031 186.964844 172.664062 188.992188 172.664062 189.1875 C 172.570312 189.765625 172.085938 191.214844 172.085938 191.3125 C 171.699219 192.183594 171.3125 192.859375 170.925781 193.535156 C 170.25 194.695312 168.703125 196.628906 167.738281 197.402344 C 164.257812 200.398438 158.941406 202.136719 154.304688 202.621094 C 151.210938 203.007812 147.636719 202.910156 144.253906 202.332031 C 143.09375 202.136719 141.453125 201.75 141.453125 201.75 C 141.453125 201.75 141.453125 202.425781 141.355469 202.910156 C 141.355469 203.101562 141.160156 203.683594 141.066406 203.875 C 140.871094 204.359375 140.386719 204.648438 139.90625 204.746094 C 139.230469 204.84375 138.457031 204.941406 137.875 204.648438 C 136.8125 204.167969 136.425781 203.199219 136.234375 202.136719 C 136.039062 201.265625 135.941406 199.625 135.941406 199.625 C 135.941406 199.625 135.167969 199.238281 134.492188 198.949219 C 132.464844 197.980469 130.53125 196.726562 128.886719 195.46875 C 128.40625 195.082031 126.472656 193.4375 125.988281 193.054688 C 124.734375 191.894531 123.667969 190.734375 122.800781 189.1875 C 122.125 188.027344 121.929688 186.964844 122.414062 185.707031 C 123.089844 183.96875 125.601562 182.710938 127.246094 181.9375 C 128.5 181.359375 132.367188 180.101562 133.914062 179.910156 C 134.6875 179.8125 135.847656 179.621094 135.941406 179.523438 C 135.941406 179.523438 136.039062 179.523438 136.039062 179.425781 C 136.039062 179.328125 136.136719 177.6875 136.136719 177.011719 C 136.136719 176.429688 136.621094 172.371094 136.714844 171.503906 C 136.8125 171.019531 137.101562 169.28125 137.488281 168.796875 C 137.683594 168.507812 138.164062 168.507812 138.457031 168.699219 C 140.292969 169.859375 140.871094 173.820312 140.96875 175.851562 C 141.066406 177.105469 141.066406 178.945312 141.066406 178.945312 C 141.066406 178.945312 143.191406 178.847656 144.445312 178.945312 C 145.703125 178.945312 147.054688 179.136719 148.410156 179.425781 C 150.050781 179.714844 153.339844 180.394531 155.175781 181.359375 C 156.71875 182.132812 158.167969 183.484375 158.652344 184.839844 C 159.039062 186.09375 159.039062 186.964844 158.363281 188.125 C 157.589844 189.378906 156.238281 190.347656 154.789062 190.445312 C 154.402344 190.445312 152.757812 190.25 152.273438 189.863281 C 152.082031 189.671875 152.082031 189.476562 152.273438 189.285156 C 152.371094 189.1875 153.046875 188.800781 153.53125 188.609375 C 153.722656 188.511719 153.917969 188.316406 154.109375 188.222656 C 154.496094 187.929688 154.789062 187.542969 154.789062 187.15625 C 154.691406 186.578125 154.207031 186.289062 153.628906 186.09375 C 151.113281 185.128906 145.992188 184.257812 143.480469 184.066406 C 142.515625 183.96875 141.160156 183.96875 141.160156 183.96875 L 141.453125 197.59375 C 141.453125 197.59375 142.609375 197.789062 143.480469 197.980469 C 143.964844 198.078125 146.1875 198.269531 146.765625 198.269531 C 151.210938 198.367188 156.042969 197.980469 160.101562 196.046875 C 161.84375 195.179688 163.484375 194.210938 164.742188 192.761719 C 166.382812 190.925781 167.253906 188.316406 166.964844 185.707031 C 166.675781 182.808594 164.644531 179.328125 163 177.203125 C 158.652344 171.695312 151.308594 167.058594 144.738281 164.449219 C 138.070312 161.742188 131.496094 160.097656 124.441406 159.90625 C 122.605469 159.808594 118.644531 159.90625 116.613281 160.484375 C 116.324219 160.582031 116.035156 160.679688 115.746094 160.679688 C 115.550781 160.679688 115.164062 160.871094 115.070312 160.96875 C 114.972656 160.96875 114.972656 161.066406 114.972656 161.066406 C 114.972656 161.066406 115.070312 161.160156 115.164062 161.160156 C 115.359375 161.257812 116.226562 161.355469 116.710938 161.355469 C 117.097656 161.453125 117.582031 161.644531 117.679688 161.933594 C 117.871094 162.226562 117.871094 162.417969 117.679688 162.707031 C 117.195312 163.289062 115.550781 163.191406 114.777344 163.09375 C 114.003906 162.996094 113.039062 162.707031 112.847656 162.03125 C 112.652344 161.257812 113.039062 160.484375 113.425781 159.710938 C 114.296875 158.261719 115.457031 157.488281 117.195312 157.007812 C 119.609375 156.328125 122.800781 155.847656 125.121094 155.75 C 130.335938 155.558594 135.363281 156.425781 140.484375 157.972656 C 143.382812 158.84375 147.25 160.292969 150.050781 161.644531 C 152.082031 162.613281 155.269531 164.351562 157.011719 165.605469 C 157.589844 165.992188 160.875 168.410156 161.359375 168.796875 C 162.421875 169.667969 163.773438 170.921875 164.839844 171.890625 C 166.769531 173.820312 169.1875 176.816406 170.347656 179.136719 C 170.636719 179.714844 170.828125 180.296875 171.214844 180.875 C 171.3125 181.070312 171.894531 182.421875 171.988281 182.808594 C 172.085938 183.195312 172.183594 183.777344 172.183594 183.777344 C 172.664062 184.355469 172.859375 185.515625 172.859375 185.902344 Z M 195.570312 186.964844 L 195.761719 186.964844 C 197.40625 187.15625 198.953125 187.449219 200.207031 188.027344 C 201.367188 188.511719 201.949219 189.1875 202.625 190.25 C 203.492188 191.988281 203.589844 194.308594 202.816406 196.144531 C 202.238281 197.5 200.882812 198.5625 199.628906 199.238281 C 198.371094 199.816406 197.117188 200.109375 195.667969 200.300781 C 193.152344 200.589844 190.351562 200.109375 188.128906 198.949219 C 186.773438 198.269531 185.132812 197.113281 184.261719 195.664062 C 183.683594 194.597656 183.683594 193.148438 184.457031 192.183594 C 185.617188 190.539062 188.226562 190.25 190.0625 190.25 C 191.511719 190.347656 194.121094 190.734375 195.570312 191.214844 C 195.957031 191.3125 197.40625 191.894531 197.597656 192.183594 C 197.792969 192.375 197.890625 192.570312 197.792969 192.859375 C 197.503906 193.824219 195.085938 194.308594 194.410156 194.40625 C 192.574219 194.695312 191.605469 194.019531 189.578125 193.148438 C 189.09375 192.957031 188.417969 192.761719 187.839844 192.667969 C 186.871094 192.570312 185.808594 192.859375 185.617188 193.824219 C 185.519531 194.308594 186.097656 194.890625 186.582031 195.082031 C 187.644531 195.566406 188.609375 195.757812 189.675781 195.757812 C 192.863281 195.855469 196.535156 195.277344 199.144531 193.4375 C 199.53125 193.148438 199.820312 192.761719 199.820312 192.375 C 199.820312 192.28125 199.726562 191.796875 199.53125 191.699219 L 199.433594 191.699219 C 199.339844 191.699219 199.242188 191.507812 199.144531 191.410156 C 198.953125 191.214844 198.179688 190.832031 198.082031 190.832031 C 196.34375 190.058594 193.058594 189.765625 191.316406 189.574219 C 189.578125 189.378906 186.773438 189.1875 186.097656 189.089844 C 185.421875 188.992188 184.648438 188.898438 184.070312 188.609375 C 183.488281 188.316406 182.910156 187.738281 182.714844 187.0625 C 182.425781 185.804688 182.8125 184.355469 183.488281 183.390625 C 185.230469 180.875 189.382812 179.910156 192.476562 179.523438 C 195.472656 179.136719 200.304688 179.136719 203.203125 180.683594 C 203.6875 180.875 203.878906 181.167969 203.785156 181.648438 C 203.589844 182.519531 202.914062 183.097656 202.042969 183.390625 C 201.175781 183.679688 199.339844 183.777344 198.566406 183.777344 C 194.988281 183.96875 190.738281 183.871094 187.355469 184.742188 C 187.066406 184.839844 186.679688 184.933594 186.484375 185.128906 C 186.003906 185.707031 187.453125 185.902344 187.742188 185.902344 L 187.933594 185.902344 L 195.570312 186.964844 M 206.585938 200.109375 C 205.136719 199.625 204.847656 197.304688 204.75 196.144531 C 204.558594 192.375 205.523438 187.0625 206.78125 183.484375 C 207.167969 182.421875 207.648438 180.78125 208.808594 180.875 C 209.582031 180.972656 210.160156 181.554688 210.546875 182.132812 C 211.707031 183.679688 213.15625 185.804688 214.125 187.351562 C 215.1875 188.992188 216.25 190.734375 217.3125 192.183594 C 217.410156 192.375 217.601562 192.570312 217.699219 192.667969 C 217.894531 192.859375 218.085938 192.859375 218.085938 192.667969 C 218.085938 192.570312 218.085938 190.734375 217.988281 190.347656 C 217.894531 189.765625 217.894531 189.285156 217.796875 188.703125 C 217.601562 187.15625 217.121094 185.03125 216.734375 183.582031 C 216.347656 181.9375 215.765625 180.296875 215.378906 178.652344 C 215.285156 178.171875 215.1875 177.589844 215.1875 177.105469 C 215.1875 176.429688 215.671875 176.042969 216.347656 176.238281 C 217.796875 176.722656 219.730469 179.910156 220.308594 180.972656 C 220.503906 181.359375 221.277344 183.195312 221.46875 183.777344 C 222.046875 185.613281 222.433594 187.253906 222.628906 189.285156 C 222.820312 191.214844 222.628906 194.019531 221.855469 195.855469 C 221.566406 196.53125 220.984375 197.5 220.40625 197.980469 C 219.632812 198.753906 217.988281 199.335938 216.925781 198.65625 C 215.765625 197.980469 213.738281 194.597656 213.449219 194.019531 C 212.289062 191.988281 210.355469 188.125 210.066406 187.738281 C 209.96875 187.640625 209.871094 187.542969 209.777344 187.542969 C 209.679688 187.542969 209.582031 187.738281 209.582031 187.929688 C 209.390625 189.089844 209.292969 194.308594 209.292969 194.503906 C 209.292969 195.371094 209.195312 197.59375 209.003906 198.65625 C 208.808594 199.335938 208.710938 199.914062 208.035156 200.203125 C 207.457031 200.398438 207.167969 200.300781 206.585938 200.109375 M 226.203125 199.816406 C 226.011719 199.722656 225.816406 199.429688 225.625 199.238281 C 225.625 199.238281 225.042969 198.464844 224.949219 198.175781 C 224.851562 197.980469 224.753906 197.789062 224.753906 197.691406 C 224.269531 196.433594 224.269531 195.277344 224.5625 194.019531 C 224.851562 192.761719 225.042969 192.761719 225.625 191.121094 C 225.625 191.023438 225.722656 190.925781 225.722656 190.832031 C 225.722656 190.636719 225.335938 189.089844 225.335938 188.609375 C 225.335938 187.835938 225.914062 187.351562 226.878906 187.253906 L 227.074219 187.253906 C 227.460938 187.15625 227.75 186.382812 227.945312 185.804688 C 228.234375 184.933594 228.714844 183.679688 228.714844 183.679688 C 228.714844 183.679688 227.460938 183.390625 226.785156 183.195312 C 226.011719 182.90625 225.527344 182.519531 225.140625 181.84375 C 224.753906 181.070312 225.042969 180.585938 225.816406 180.394531 C 226.109375 180.296875 228.523438 179.8125 229.296875 179.714844 C 230.261719 179.621094 231.132812 179.425781 232.003906 179.328125 C 232.777344 179.234375 236.351562 178.847656 237.511719 178.847656 C 239.25 178.945312 240.410156 179.621094 241.375 181.070312 C 241.957031 181.84375 242.246094 182.808594 241.472656 183.292969 C 240.21875 184.066406 236.15625 184.160156 235.386719 184.160156 L 232.582031 184.160156 L 231.710938 186.964844 L 236.253906 186.964844 C 236.640625 186.964844 237.027344 186.964844 237.316406 187.0625 C 238.1875 187.253906 238.476562 187.929688 238.476562 188.800781 C 238.476562 189.863281 238.285156 190.445312 237.414062 190.539062 C 236.929688 190.636719 231.90625 190.636719 231.230469 190.734375 C 230.84375 190.832031 230.359375 190.832031 230.359375 190.832031 C 230.359375 190.832031 229.972656 191.796875 229.683594 192.761719 C 229.394531 193.730469 229.101562 194.792969 229.101562 194.792969 L 229.585938 194.792969 C 229.972656 194.792969 230.261719 194.792969 230.554688 194.695312 C 232.097656 194.40625 234.417969 194.117188 236.253906 193.824219 C 237.222656 193.632812 237.800781 193.632812 238.285156 194.308594 C 238.765625 194.890625 238.960938 195.371094 239.058594 196.144531 C 239.058594 196.820312 238.574219 197.304688 237.898438 197.789062 C 235.964844 199.335938 232.484375 200.976562 229.972656 201.265625 C 228.8125 201.363281 228.523438 201.265625 227.460938 200.976562 C 227.265625 200.878906 226.589844 200.589844 226.589844 200.589844 C 226.785156 200.203125 226.398438 199.914062 226.203125 199.816406 Z M 258.09375 185.804688 C 256.839844 186.867188 255.097656 189.089844 254.328125 190.25 C 253.261719 191.796875 252.296875 193.535156 251.332031 194.890625 C 251.136719 195.179688 250.460938 196.242188 250.558594 196.339844 C 250.558594 196.433594 251.234375 196.433594 251.910156 196.242188 C 253.261719 196.046875 255.097656 195.082031 256.164062 194.210938 C 257.707031 192.957031 258.773438 191.3125 259.253906 189.378906 C 259.449219 188.511719 259.542969 186.675781 258.964844 185.804688 C 258.675781 185.707031 258.289062 185.613281 258.09375 185.804688 M 247.753906 201.75 C 247.753906 201.75 247.367188 203.007812 247.078125 203.875 C 246.59375 205.519531 245.433594 209.867188 245.144531 211.316406 C 244.757812 213.347656 243.597656 218.664062 243.597656 218.757812 C 243.503906 218.953125 243.503906 218.953125 243.308594 219.050781 C 242.824219 219.339844 242.632812 219.242188 242.054688 218.953125 C 241.28125 218.566406 240.699219 218.179688 240.121094 217.40625 C 239.058594 215.957031 239.25 213.25 239.539062 211.703125 C 240.3125 206.097656 241.085938 203.683594 243.210938 198.175781 L 243.210938 197.980469 C 242.535156 196.53125 242.148438 194.890625 242.148438 193.535156 C 242.148438 189.1875 244.664062 184.933594 247.464844 181.457031 C 247.65625 181.167969 249.011719 179.523438 249.6875 179.621094 C 250.265625 179.621094 250.460938 180.394531 250.363281 180.972656 C 250.074219 183.003906 248.625 185.03125 247.65625 186.675781 C 246.59375 188.609375 246.304688 189.378906 245.820312 191.121094 C 245.726562 191.410156 245.53125 192.667969 245.53125 192.859375 C 245.53125 193.34375 245.628906 193.921875 245.628906 193.921875 C 245.628906 193.921875 247.367188 191.410156 248.527344 189.960938 C 249.203125 189.089844 249.589844 188.609375 250.171875 187.929688 C 250.75 187.351562 252.78125 185.128906 253.359375 184.644531 C 254.617188 183.484375 255.195312 183.003906 256.550781 182.230469 C 257.613281 181.648438 258.578125 181.554688 259.640625 182.230469 C 261.285156 183.292969 262.058594 185.613281 262.25 187.449219 C 262.445312 189.671875 262.058594 192.183594 260.996094 194.117188 C 259.835938 196.433594 258.191406 198.078125 256.066406 199.429688 C 253.84375 200.878906 251.234375 201.945312 248.722656 201.847656 C 248.140625 201.75 247.753906 201.75 247.753906 201.75 " fill-opacity="1" fill-rule="nonzero"/></g></svg>