<svg xmlns="http://www.w3.org/2000/svg" xmlns:xlink="http://www.w3.org/1999/xlink" width="500" zoomAndPan="magnify" viewBox="0 0 375 374.999991" height="500" preserveAspectRatio="xMidYMid meet" version="1.0"><defs><clipPath id="0c46f95aa1"><path d="M 249 109 L 340 109 L 340 182 L 249 182 Z M 249 109 " clip-rule="nonzero"/></clipPath><clipPath id="f42b0327ba"><path d="M 339.449219 117.730469 C 339.152344 118.660156 338.910156 119.589844 338.617188 120.472656 C 336.167969 128.152344 332.988281 135.636719 328.976562 142.632812 C 325.015625 149.53125 320.21875 156.039062 314.691406 161.714844 C 311.753906 164.75 308.527344 167.488281 305.152344 170.03125 C 301.96875 172.480469 298.644531 174.679688 295.070312 176.492188 C 286.65625 180.847656 276.722656 183.390625 267.378906 180.648438 C 259.011719 178.203125 251.332031 171.792969 249.277344 163.035156 L 261.066406 159.808594 C 261.214844 160.445312 261.410156 161.03125 261.65625 161.667969 C 262.046875 162.449219 262.488281 163.183594 262.976562 163.867188 C 263.710938 164.699219 264.445312 165.484375 265.324219 166.167969 C 266.449219 166.949219 267.671875 167.683594 268.894531 168.273438 C 270.316406 168.808594 271.78125 169.203125 273.300781 169.496094 C 275.011719 169.640625 276.773438 169.640625 278.484375 169.445312 C 281.128906 169.003906 283.671875 168.273438 286.167969 167.292969 C 290.523438 165.386719 294.582031 162.839844 298.398438 159.953125 C 303.390625 155.992188 307.890625 151.441406 311.851562 146.449219 C 312.832031 145.179688 313.761719 143.90625 314.640625 142.585938 C 318.164062 137.398438 321.101562 131.871094 323.59375 126.144531 C 325.160156 122.328125 326.53125 118.414062 327.707031 114.453125 C 328.144531 112.886719 329.171875 111.664062 330.496094 110.785156 C 331.863281 109.902344 333.625 109.804688 335.191406 110.148438 C 336.660156 110.488281 338.125 111.714844 338.859375 112.9375 C 339.644531 114.355469 339.886719 116.214844 339.449219 117.730469 Z M 339.449219 117.730469 " clip-rule="nonzero"/></clipPath><clipPath id="c239c439c8"><path d="M 146.238281 4 L 345 4 L 345 143 L 146.238281 143 Z M 146.238281 4 " clip-rule="nonzero"/></clipPath><clipPath id="0a4f0b5eb1"><path d="M 344.488281 84.851562 C 344.195312 95.957031 342.53125 107.066406 339.449219 117.730469 C 338.519531 121.007812 335.191406 122.769531 331.914062 121.988281 C 328.734375 121.253906 326.777344 117.535156 327.65625 114.453125 C 329.269531 108.875 330.496094 103.199219 331.277344 97.425781 C 332.5 87.789062 332.648438 77.953125 331.472656 68.265625 C 330.496094 61.464844 328.78125 54.761719 326.1875 48.351562 C 324.183594 43.804688 321.738281 39.496094 318.753906 35.484375 C 315.964844 32.011719 312.78125 28.832031 309.308594 26.042969 C 306.03125 23.597656 302.460938 21.492188 298.691406 19.828125 C 295.316406 18.507812 291.84375 17.53125 288.269531 16.941406 C 285.285156 16.601562 282.300781 16.550781 279.316406 16.894531 C 276.136719 17.382812 273.054688 18.3125 270.070312 19.488281 C 266.546875 21.050781 263.269531 23.007812 260.1875 25.261719 C 257.105469 27.707031 254.363281 30.496094 251.917969 33.527344 C 249.375 36.90625 247.269531 40.574219 245.605469 44.4375 C 243.0625 50.75 241.644531 57.40625 240.714844 64.109375 C 240.226562 67.726562 239.933594 71.347656 239.734375 75.019531 C 239.34375 82.257812 239.34375 89.597656 240.128906 96.839844 C 240.324219 98.40625 239.34375 100.070312 238.316406 101.144531 C 237.4375 102.125 236.066406 102.660156 234.792969 102.808594 C 233.425781 103.003906 232.152344 102.757812 230.878906 102.074219 C 229.65625 101.4375 228.921875 100.3125 228.386719 99.089844 C 228.386719 99.140625 228.386719 99.140625 228.433594 99.1875 C 228.433594 99.140625 228.386719 99.140625 228.386719 99.089844 C 228.335938 98.941406 228.238281 98.796875 228.191406 98.648438 C 227.796875 97.71875 227.359375 96.789062 226.917969 95.859375 C 223.050781 87.542969 218.453125 79.46875 212.875 72.132812 C 209.792969 68.265625 206.417969 64.597656 202.503906 61.515625 C 200.449219 59.996094 198.296875 58.675781 195.945312 57.601562 C 194.382812 57.011719 192.816406 56.574219 191.203125 56.28125 C 189.683594 56.132812 188.117188 56.132812 186.554688 56.28125 C 184.988281 56.574219 183.472656 56.964844 182.003906 57.550781 C 179.65625 58.628906 177.402344 59.996094 175.300781 61.515625 C 172.804688 63.519531 170.601562 65.769531 168.597656 68.265625 C 166.296875 71.398438 164.339844 74.726562 162.773438 78.296875 C 161.0625 82.503906 159.886719 86.957031 159.203125 91.457031 C 158.226562 99.675781 158.617188 107.996094 159.691406 116.214844 C 160.574219 122.429688 161.746094 128.542969 162.921875 134.707031 C 163.558594 138.085938 161.992188 141.167969 158.664062 142.242188 C 157.199219 142.730469 155.242188 142.390625 153.96875 141.605469 C 152.746094 140.871094 151.425781 139.40625 151.179688 137.9375 C 150.691406 135.441406 150.199219 132.945312 149.761719 130.453125 C 147.851562 120.128906 146.238281 109.558594 146.484375 99.042969 C 146.628906 94.050781 147.117188 89.011719 148.195312 84.117188 C 149.125 79.910156 150.59375 75.851562 152.355469 71.886719 C 158.617188 58.238281 171.335938 45.566406 186.894531 44.097656 C 197.804688 43.070312 207.984375 49.332031 215.46875 56.671875 C 220.117188 61.222656 224.128906 66.40625 227.699219 71.886719 C 228.238281 63.667969 229.460938 55.449219 231.664062 47.523438 C 236.066406 31.816406 246.488281 17.871094 261.066406 10.289062 C 266.988281 7.207031 273.25 5.199219 279.90625 4.613281 C 289.152344 3.78125 298.496094 6.082031 306.765625 10.140625 C 314.886719 14.105469 322.128906 20.125 327.707031 27.21875 C 334.066406 35.289062 338.519531 44.585938 341.160156 54.519531 C 343.800781 64.351562 344.78125 74.675781 344.488281 84.851562 Z M 344.488281 84.851562 " clip-rule="nonzero"/></clipPath><clipPath id="381d013789"><path d="M 259 58 L 308 58 L 308 98 L 259 98 Z M 259 58 " clip-rule="nonzero"/></clipPath><clipPath id="09b58a7797"><path d="M 307.351562 64.449219 C 307.007812 71.984375 306.617188 79.570312 306.277344 87.101562 C 306.179688 88.765625 305.589844 90.183594 304.464844 91.410156 C 303.339844 92.632812 301.726562 93.121094 300.160156 93.21875 C 298.644531 93.269531 296.882812 92.484375 295.855469 91.410156 C 294.777344 90.332031 293.996094 88.621094 294.042969 87.101562 C 294.386719 79.570312 294.777344 71.984375 295.121094 64.449219 C 295.21875 62.785156 295.804688 61.367188 296.929688 60.144531 C 298.054688 58.921875 299.671875 58.433594 301.238281 58.335938 C 302.753906 58.285156 304.515625 59.066406 305.542969 60.144531 C 306.617188 61.171875 307.402344 62.882812 307.351562 64.449219 Z M 271.246094 66.210938 C 270.414062 64.890625 269.140625 63.8125 267.574219 63.421875 C 266.105469 63.03125 264.148438 63.179688 262.878906 64.058594 C 261.558594 64.890625 260.433594 66.164062 260.089844 67.726562 C 259.746094 69.292969 259.84375 71.054688 260.726562 72.425781 C 265.375 79.8125 270.019531 87.152344 274.621094 94.539062 C 275.453125 95.859375 276.722656 96.9375 278.289062 97.328125 C 279.757812 97.71875 281.714844 97.574219 282.988281 96.691406 C 284.308594 95.859375 285.433594 94.589844 285.777344 93.023438 C 286.117188 91.457031 286.019531 89.695312 285.140625 88.328125 C 280.539062 80.9375 275.894531 73.597656 271.246094 66.210938 Z M 271.246094 66.210938 " clip-rule="nonzero"/></clipPath><clipPath id="861f459efc"><path d="M 248 107 L 371 107 L 371 246.75 L 248 246.75 Z M 248 107 " clip-rule="nonzero"/></clipPath><clipPath id="eef1dd0bf3"><path d="M 369.046875 175.707031 C 367.921875 181.382812 366.015625 186.816406 363.714844 192.148438 C 361.953125 196.207031 359.851562 200.171875 357.5 203.890625 C 352.558594 211.570312 346.492188 218.617188 339.546875 224.535156 C 332.597656 230.457031 324.867188 235.496094 316.5 239.164062 C 312.097656 241.121094 307.597656 242.785156 302.949219 244.058594 C 298.300781 245.332031 293.554688 246.113281 288.761719 246.652344 C 287.195312 246.847656 285.53125 245.867188 284.453125 244.839844 C 283.230469 243.714844 282.742188 242.101562 282.644531 240.535156 C 282.59375 239.019531 283.378906 237.257812 284.453125 236.230469 C 284.992188 235.644531 285.679688 235.203125 286.410156 234.957031 C 287.144531 234.566406 287.929688 234.421875 288.761719 234.421875 C 289.101562 234.371094 289.445312 234.320312 289.789062 234.273438 C 296.6875 233.292969 303.390625 231.433594 309.796875 228.792969 C 316.355469 225.957031 322.566406 222.285156 328.292969 217.980469 C 333.773438 213.675781 338.761719 208.683594 343.066406 203.203125 C 347.082031 197.921875 350.40625 192.195312 353.050781 186.128906 C 355.300781 180.601562 356.964844 174.777344 357.84375 168.859375 C 358.382812 164.160156 358.429688 159.367188 357.894531 154.671875 C 357.304688 150.707031 356.230469 146.84375 354.710938 143.125 C 353.246094 139.84375 351.484375 136.714844 349.332031 133.875 C 347.421875 131.527344 345.269531 129.328125 342.921875 127.417969 C 340.476562 125.609375 337.882812 124.140625 335.140625 122.867188 C 331.71875 121.5 328.144531 120.570312 324.476562 119.980469 C 320.121094 119.441406 315.667969 119.492188 311.316406 120.03125 C 307.792969 120.570312 304.367188 121.449219 300.941406 122.429688 C 297.371094 123.503906 293.800781 124.726562 290.324219 126.144531 C 283.964844 128.886719 277.847656 132.261719 272.320312 136.46875 C 269.972656 138.328125 267.820312 140.382812 265.910156 142.683594 C 264.542969 144.589844 263.367188 146.597656 262.390625 148.703125 C 261.703125 150.460938 261.214844 152.222656 260.871094 154.082031 C 260.726562 155.699219 260.675781 157.261719 260.871094 158.878906 C 260.921875 159.171875 260.96875 159.515625 261.066406 159.808594 C 261.460938 161.472656 261.261719 163.035156 260.433594 164.503906 C 259.699219 165.921875 258.277344 166.851562 256.761719 167.292969 C 255.292969 167.78125 253.335938 167.441406 252.066406 166.65625 C 250.792969 165.921875 249.570312 164.457031 249.277344 162.988281 C 248.691406 160.445312 248.394531 157.753906 248.542969 155.109375 C 249.179688 144.445312 255 134.804688 263.171875 128.152344 C 267.332031 124.777344 271.734375 121.792969 276.480469 119.199219 C 281.273438 116.605469 286.265625 114.453125 291.402344 112.59375 C 300.84375 109.167969 310.921875 106.820312 321.050781 107.359375 C 326.285156 107.652344 331.523438 108.53125 336.464844 110.246094 C 339.105469 111.175781 341.699219 112.300781 344.195312 113.621094 C 346.6875 114.941406 348.9375 116.558594 351.140625 118.316406 C 359.066406 124.53125 364.597656 133.484375 367.726562 142.929688 C 371.199219 153.542969 371.25 164.894531 369.046875 175.707031 Z M 369.046875 175.707031 " clip-rule="nonzero"/></clipPath></defs><g clip-path="url(#0c46f95aa1)"><g clip-path="url(#f42b0327ba)"><path fill="#e66222" d="M 249.277344 109.804688 L 249.277344 183.390625 L 339.886719 183.390625 L 339.886719 109.804688 Z M 249.277344 109.804688 " fill-opacity="1" fill-rule="nonzero"/></g></g><g clip-path="url(#c239c439c8)"><g clip-path="url(#0a4f0b5eb1)"><path fill="#e66222" d="M 146.238281 3.78125 L 146.238281 142.730469 L 344.78125 142.730469 L 344.78125 3.78125 Z M 146.238281 3.78125 " fill-opacity="1" fill-rule="nonzero"/></g></g><g clip-path="url(#381d013789)"><g clip-path="url(#09b58a7797)"><path fill="#e66222" d="M 259.746094 58.285156 L 259.746094 97.71875 L 307.402344 97.71875 L 307.402344 58.285156 Z M 259.746094 58.285156 " fill-opacity="1" fill-rule="nonzero"/></g></g><g clip-path="url(#861f459efc)"><g clip-path="url(#eef1dd0bf3)"><path fill="#e66222" d="M 248.394531 106.820312 L 248.394531 246.75 L 371.238281 246.75 L 371.238281 106.820312 Z M 248.394531 106.820312 " fill-opacity="1" fill-rule="nonzero"/></g></g></svg>