<svg xmlns="http://www.w3.org/2000/svg" xmlns:xlink="http://www.w3.org/1999/xlink" width="500" zoomAndPan="magnify" viewBox="0 0 375 374.999991" height="500" preserveAspectRatio="xMidYMid meet" version="1.0"><defs><clipPath id="f92a1251ce"><path d="M 112.5 112.5 L 262.5 112.5 L 262.5 262.5 L 112.5 262.5 Z M 112.5 112.5 " clip-rule="nonzero"/></clipPath></defs><g clip-path="url(#f92a1251ce)"><path stroke-linecap="round" transform="matrix(0.0340105, 0, 0, 0.0340105, 32.003894, 32.003889)" fill="none" stroke-linejoin="round" d="M 6688.992494 4572.000525 C 6688.992494 4606.686485 6688.188515 4641.257591 6686.465702 4675.828697 C 6684.74289 4710.514657 6682.216098 4744.970909 6678.770473 4779.542014 C 6675.439702 4813.998266 6671.190097 4848.339663 6666.136514 4882.681061 C 6660.968076 4916.907604 6655.110513 4951.019293 6648.334117 4985.016128 C 6641.557721 5019.012963 6633.977345 5052.78009 6625.592991 5086.432362 C 6617.093782 5119.969781 6607.905448 5153.392345 6597.798281 5186.5852 C 6587.805968 5219.663202 6576.894822 5252.626349 6565.294551 5285.244934 C 6553.579425 5317.863519 6541.06032 5350.137542 6527.85209 5382.181856 C 6514.643861 5414.111315 6500.516797 5445.811067 6485.700609 5477.166256 C 6470.884421 5508.406591 6455.379108 5539.417217 6439.069815 5569.968427 C 6422.645669 5600.519637 6405.647251 5630.61143 6387.844855 5660.358661 C 6370.042458 5690.105891 6351.436082 5719.278851 6332.255435 5748.107248 C 6312.959934 5776.935645 6292.975308 5805.304626 6272.416412 5833.099335 C 6251.742661 5860.894045 6230.494639 5888.229338 6208.442638 5914.99036 C 6186.505491 5941.751382 6163.879219 5968.052988 6140.563822 5993.665468 C 6117.363279 6019.392803 6093.473611 6044.431012 6068.894819 6068.894951 C 6044.43088 6093.473744 6019.39267 6117.363411 5993.665336 6140.563954 C 5968.052855 6163.879351 5941.75125 6186.505623 5914.990228 6208.44277 C 5888.229206 6230.494771 5860.893913 6251.742793 5833.099203 6272.416544 C 5805.304493 6292.975441 5776.935513 6312.960067 5748.107116 6332.255568 C 5719.278719 6351.436214 5690.105759 6370.04259 5660.358528 6387.844987 C 5630.611298 6405.647384 5600.519505 6422.645801 5569.968295 6439.069948 C 5539.417085 6455.37924 5508.406458 6470.884553 5477.166124 6485.700742 C 5445.810935 6500.51693 5414.111183 6514.643993 5382.181723 6527.852223 C 5350.137409 6541.060452 5317.863387 6553.579557 5285.244802 6565.294683 C 5252.626217 6576.894954 5219.66307 6587.806101 5186.585068 6597.798414 C 5153.392212 6607.905581 5119.969648 6617.093914 5086.43223 6625.593123 C 5052.779958 6633.977478 5019.012831 6641.557853 4985.015996 6648.334249 C 4951.019161 6655.110645 4916.907472 6660.968208 4882.680929 6666.136646 C 4848.339531 6671.19023 4813.998134 6675.439834 4779.541882 6678.770605 C 4744.970776 6682.21623 4710.514525 6684.743022 4675.828565 6686.465834 C 4641.257459 6688.188647 4606.686353 6688.992626 4572.000393 6688.992626 C 4537.314433 6688.992626 4502.743327 6688.188647 4468.172221 6686.465834 C 4433.486261 6684.743022 4399.03001 6682.21623 4364.458904 6678.770605 C 4330.002652 6675.439834 4295.661255 6671.19023 4261.319857 6666.136646 C 4227.093314 6660.968208 4192.981625 6655.110645 4158.98479 6648.334249 C 4124.987955 6641.557853 4091.220828 6633.977478 4057.568556 6625.593123 C 4024.031138 6617.093914 3990.608574 6607.905581 3957.415718 6597.798414 C 3924.337716 6587.806101 3891.374569 6576.894954 3858.755984 6565.294683 C 3826.137399 6553.579557 3793.863377 6541.060452 3761.819063 6527.852223 C 3729.889603 6514.643993 3698.189851 6500.51693 3666.834662 6485.700742 C 3635.594328 6470.884553 3604.583701 6455.37924 3574.032491 6439.069948 C 3543.481281 6422.645801 3513.389488 6405.647384 3483.642258 6387.844987 C 3453.895027 6370.04259 3424.722067 6351.436214 3395.89367 6332.255568 C 3367.065273 6312.960067 3338.696293 6292.975441 3310.901583 6272.416544 C 3283.106873 6251.742793 3255.77158 6230.494771 3229.010558 6208.44277 C 3202.249536 6186.505623 3175.947931 6163.879351 3150.33545 6140.563954 C 3124.608116 6117.363411 3099.569906 6093.473744 3075.105967 6068.894951 C 3050.527175 6044.431012 3026.637507 6019.392803 3003.436964 5993.665468 C 2980.121567 5968.052988 2957.495295 5941.751382 2935.558148 5914.99036 C 2913.506147 5888.229338 2892.258125 5860.894045 2871.584374 5833.099335 C 2851.025478 5805.304626 2831.040852 5776.935645 2811.745351 5748.107248 C 2792.564704 5719.278851 2773.958328 5690.105891 2756.155931 5660.358661 C 2738.353535 5630.61143 2721.355117 5600.519637 2704.930971 5569.968427 C 2688.621678 5539.417217 2673.116365 5508.406591 2658.300177 5477.166256 C 2643.483989 5445.811067 2629.356925 5414.111315 2616.148696 5382.181856 C 2602.940466 5350.137542 2590.421361 5317.863519 2578.706235 5285.244934 C 2567.105964 5252.626349 2556.194818 5219.663202 2546.202505 5186.5852 C 2536.095338 5153.392345 2526.907004 5119.969781 2518.407795 5086.432362 C 2510.023441 5052.78009 2502.443065 5019.012963 2495.666669 4985.016128 C 2488.890273 4951.019293 2483.03271 4916.907604 2477.864272 4882.681061 C 2472.810689 4848.339663 2468.561084 4813.998266 2465.230313 4779.542014 C 2461.784688 4744.970909 2459.257896 4710.514657 2457.535084 4675.828697 C 2455.812271 4641.257591 2455.008292 4606.686485 2455.008292 4572.000525 C 2455.008292 4537.314565 2455.812271 4502.74346 2457.535084 4468.172354 C 2459.257896 4433.486394 2461.784688 4399.030142 2465.230313 4364.459036 C 2468.561084 4330.002785 2472.810689 4295.661387 2477.864272 4261.31999 C 2483.03271 4227.093446 2488.890273 4192.981757 2495.666669 4158.984922 C 2502.443065 4124.988087 2510.023441 4091.220961 2518.407795 4057.568688 C 2526.907004 4024.03127 2536.095338 3990.608706 2546.202505 3957.41585 C 2556.194818 3924.337849 2567.105964 3891.374701 2578.706235 3858.756116 C 2590.421361 3826.137531 2602.940466 3793.863509 2616.148696 3761.819195 C 2629.356925 3729.889735 2643.483989 3698.189984 2658.300177 3666.834795 C 2673.116365 3635.59446 2688.621678 3604.583833 2704.930971 3574.032624 C 2721.355117 3543.481414 2738.353535 3513.389621 2756.155931 3483.64239 C 2773.958328 3453.89516 2792.564704 3424.7222 2811.745351 3395.893803 C 2831.040852 3367.065405 2851.025478 3338.696425 2871.584374 3310.901715 C 2892.258125 3283.107006 2913.506147 3255.771713 2935.558148 3229.01069 C 2957.495295 3202.249668 2980.121567 3175.948063 3003.436964 3150.335583 C 3026.637507 3124.608248 3050.527175 3099.570038 3075.105967 3075.1061 C 3099.569906 3050.527307 3124.608116 3026.637639 3150.33545 3003.437096 C 3175.947931 2980.121699 3202.249536 2957.495428 3229.010558 2935.558281 C 3255.77158 2913.50628 3283.106873 2892.258258 3310.901583 2871.584507 C 3338.696293 2851.02561 3367.065273 2831.040984 3395.89367 2811.745483 C 3424.722067 2792.564836 3453.895027 2773.95846 3483.642258 2756.156064 C 3513.389488 2738.353667 3543.481281 2721.35525 3574.032491 2704.931103 C 3604.583701 2688.621811 3635.594328 2673.116497 3666.834662 2658.300309 C 3698.189851 2643.484121 3729.889603 2629.357058 3761.819063 2616.148828 C 3793.863377 2602.940598 3826.137399 2590.421493 3858.755984 2578.706368 C 3891.374569 2567.106096 3924.337716 2556.19495 3957.415718 2546.202637 C 3990.608574 2536.09547 4024.031138 2526.907136 4057.568556 2518.407927 C 4091.220828 2510.023573 4124.987955 2502.443198 4158.98479 2495.666801 C 4192.981625 2488.890405 4227.093314 2483.032842 4261.319857 2477.864405 C 4295.661255 2472.810821 4330.002652 2468.561217 4364.458904 2465.230446 C 4399.03001 2461.784821 4433.486261 2459.258029 4468.172221 2457.535216 C 4502.743327 2455.812404 4537.314433 2455.008424 4572.000393 2455.008424 C 4606.686353 2455.008424 4641.257459 2455.812404 4675.828565 2457.535216 C 4710.514525 2459.258029 4744.970776 2461.784821 4779.541882 2465.230446 C 4813.998134 2468.561217 4848.339531 2472.810821 4882.680929 2477.864405 C 4916.907472 2483.032842 4951.019161 2488.890405 4985.015996 2495.666801 C 5019.012831 2502.443198 5052.779958 2510.023573 5086.43223 2518.407927 C 5119.969648 2526.907136 5153.392212 2536.09547 5186.585068 2546.202637 C 5219.66307 2556.19495 5252.626217 2567.106096 5285.244802 2578.706368 C 5317.863387 2590.421493 5350.137409 2602.940598 5382.181723 2616.148828 C 5414.111183 2629.357058 5445.810935 2643.484121 5477.166124 2658.300309 C 5508.406458 2673.116497 5539.417085 2688.621811 5569.968295 2704.931103 C 5600.519505 2721.35525 5630.611298 2738.353667 5660.358528 2756.156064 C 5690.105759 2773.95846 5719.278719 2792.564836 5748.107116 2811.745483 C 5776.935513 2831.040984 5805.304493 2851.02561 5833.099203 2871.584507 C 5860.893913 2892.258258 5888.229206 2913.50628 5914.990228 2935.558281 C 5941.75125 2957.495428 5968.052855 2980.121699 5993.665336 3003.437096 C 6019.39267 3026.637639 6044.43088 3050.527307 6068.894819 3075.1061 C 6093.473611 3099.570038 6117.363279 3124.608248 6140.563822 3150.335583 C 6163.879219 3175.948063 6186.505491 3202.249668 6208.442638 3229.01069 C 6230.494639 3255.771713 6251.742661 3283.107006 6272.416412 3310.901715 C 6292.975308 3338.696425 6312.959934 3367.065405 6332.255435 3395.893803 C 6351.436082 3424.7222 6370.042458 3453.89516 6387.844855 3483.64239 C 6405.647251 3513.389621 6422.645669 3543.481414 6439.069815 3574.032624 C 6455.379108 3604.583833 6470.884421 3635.59446 6485.700609 3666.834795 C 6500.516797 3698.189984 6514.643861 3729.889735 6527.85209 3761.819195 C 6541.06032 3793.863509 6553.579425 3826.137531 6565.294551 3858.756116 C 6576.894822 3891.374701 6587.805968 3924.337849 6597.798281 3957.41585 C 6607.905448 3990.608706 6617.093782 4024.03127 6625.592991 4057.568688 C 6633.977345 4091.220961 6641.557721 4124.988087 6648.334117 4158.984922 C 6655.110513 4192.981757 6660.968076 4227.093446 6666.136514 4261.31999 C 6671.190097 4295.661387 6675.439702 4330.002785 6678.770473 4364.459036 C 6682.216098 4399.030142 6684.74289 4433.486394 6686.465702 4468.172354 C 6688.188515 4502.74346 6688.992494 4537.314565 6688.992494 4572.000525 Z M 6688.992494 4572.000525 " stroke="#ffffff" stroke-width="176.38" stroke-opacity="1" stroke-miterlimit="4"/></g><path stroke-linecap="round" transform="matrix(0.0340105, 0, 0, 0.0340105, 32.003894, 32.003889)" fill="none" stroke-linejoin="round" d="M 4000.026616 5524.026758 L 5481.989999 4572.000525 L 4000.026616 3619.055459 Z M 4000.026616 5524.026758 " stroke="#ffffff" stroke-width="176.38" stroke-opacity="1" stroke-miterlimit="4"/></svg>