<svg xmlns="http://www.w3.org/2000/svg" xmlns:xlink="http://www.w3.org/1999/xlink" width="500" zoomAndPan="magnify" viewBox="0 0 375 374.999991" height="500" preserveAspectRatio="xMidYMid meet" version="1.0"><path fill="#ffffff" d="M 176.65625 200.585938 L 184.742188 229.480469 L 194.066406 229.480469 L 202.152344 200.585938 L 196.707031 200.585938 L 190.496094 223.617188 L 188.3125 223.617188 L 182.101562 200.585938 Z M 163.242188 229.480469 L 163.996094 224.539062 L 151.207031 224.539062 L 151.207031 200.585938 L 145.929688 200.585938 L 145.929688 229.480469 Z M 167.746094 229.480469 L 167.746094 200.585938 L 173.023438 200.585938 L 173.023438 229.480469 Z M 205.769531 200.585938 L 205.769531 229.480469 L 223.996094 229.480469 L 223.996094 224.457031 L 211.050781 224.457031 L 211.050781 217.6875 L 223.128906 217.6875 L 223.128906 212.664062 L 211.050781 212.664062 L 211.050781 205.613281 L 223.996094 205.613281 L 223.996094 200.585938 Z M 190.214844 171.492188 L 185.21875 172.90625 C 184.480469 172.042969 183.019531 170.703125 183.019531 170.703125 L 176.105469 170.703125 C 175.402344 170.90625 174.660156 171.679688 173.898438 172.75 L 173.898438 188.023438 C 174.496094 188.839844 175.167969 189.566406 176 190.105469 L 182.828125 190.105469 C 183.601562 189.613281 184.375 189.105469 185.097656 187.894531 L 185.097656 183.242188 L 178.9375 183.242188 L 178.9375 178.199219 L 190.375 178.199219 L 190.375 189.003906 L 191.367188 194.855469 L 186.015625 194.855469 L 185.765625 192.246094 C 184.824219 193.246094 183.898438 194.261719 182.0625 195.152344 L 176 195.152344 C 175.558594 195.195312 175.117188 195.195312 174.675781 195.152344 C 174.234375 195.105469 173.804688 195.019531 173.378906 194.890625 C 172.953125 194.761719 172.546875 194.59375 172.15625 194.382812 C 171.765625 194.175781 171.398438 193.929688 171.054688 193.648438 C 170.710938 193.367188 170.398438 193.054688 170.117188 192.710938 C 169.835938 192.367188 169.59375 192 169.382812 191.609375 C 169.175781 191.21875 169.007812 190.8125 168.878906 190.386719 C 168.75 189.960938 168.664062 189.53125 168.621094 189.089844 L 168.621094 172.265625 C 168.628906 171.824219 168.683594 171.386719 168.777344 170.953125 C 168.875 170.519531 169.011719 170.101562 169.1875 169.695312 C 169.367188 169.289062 169.582031 168.902344 169.839844 168.539062 C 170.09375 168.175781 170.378906 167.839844 170.699219 167.535156 C 171.019531 167.226562 171.367188 166.957031 171.742188 166.71875 C 172.113281 166.480469 172.507812 166.28125 172.921875 166.117188 C 173.335938 165.957031 173.757812 165.839844 174.195312 165.761719 C 174.632812 165.683594 175.074219 165.652344 175.515625 165.660156 L 183.429688 165.660156 C 184.707031 165.855469 185.871094 166.328125 186.921875 167.085938 C 187.96875 167.839844 188.789062 168.796875 189.375 169.945312 Z M 130.492188 194.855469 L 130.492188 172.539062 L 129.480469 165.964844 L 134.800781 165.964844 L 135.03125 168.429688 L 135.214844 168.429688 C 136.183594 167.382812 137.117188 166.308594 138.957031 165.660156 L 144.039062 165.660156 C 144.847656 165.667969 145.625 165.835938 146.363281 166.164062 C 147.105469 166.488281 147.75 166.949219 148.296875 167.542969 L 149.761719 169.089844 C 150.652344 169.9375 151.132812 170.976562 151.199219 172.207031 L 151.199219 194.855469 L 145.921875 194.855469 L 145.921875 172.753906 C 145.414062 171.890625 144.800781 171.132812 143.859375 170.707031 L 137.753906 170.707031 C 136.804688 171.230469 136.207031 171.949219 135.773438 172.753906 L 135.773438 194.855469 Z M 157.320312 194.855469 L 157.320312 165.964844 L 162.597656 165.964844 L 162.597656 194.855469 Z M 196.34375 165.964844 L 196.34375 194.855469 L 201.621094 194.855469 L 201.621094 182.96875 L 211.914062 182.96875 L 211.914062 194.855469 L 217.191406 194.855469 L 217.191406 165.964844 L 211.914062 165.964844 L 211.914062 178.046875 L 201.621094 178.046875 L 201.621094 165.964844 Z M 221.496094 165.964844 L 221.496094 170.949219 L 229.347656 170.949219 L 229.347656 194.855469 L 234.625 194.855469 L 234.625 170.949219 L 242.480469 170.949219 L 242.480469 165.964844 Z M 263.585938 131.25 L 272.480469 151.902344 L 272.480469 160.140625 L 277.925781 160.140625 L 277.925781 151.902344 L 286.820312 131.25 L 280.992188 131.25 L 276.136719 143.332031 L 274.269531 143.332031 L 269.414062 131.25 Z M 248.097656 149.039062 L 256.894531 149.039062 L 253.5625 137.101562 L 251.425781 137.101562 Z M 239.371094 160.144531 L 247.804688 131.25 L 257.1875 131.25 L 265.621094 160.144531 L 259.996094 160.144531 L 258.296875 154.054688 L 246.695312 154.054688 L 244.996094 160.144531 Z M 216.246094 131.25 L 216.246094 160.144531 L 229.851562 160.144531 C 231.191406 160.144531 232.476562 159.609375 233.425781 158.664062 L 235.269531 156.820312 C 236.210938 155.878906 236.746094 154.605469 236.75 153.273438 L 236.75 138.117188 C 236.746094 136.789062 236.210938 135.511719 235.269531 134.574219 L 233.425781 132.730469 C 232.476562 131.78125 231.191406 131.25 229.851562 131.25 Z M 221.527344 136.164062 L 229.429688 136.164062 L 231.46875 138.207031 L 231.46875 153.183594 L 229.429688 155.226562 L 221.527344 155.226562 Z M 195.277344 136.199219 L 203.421875 136.199219 C 204.457031 136.199219 205.292969 137.035156 205.292969 138.066406 L 205.292969 141.890625 C 205.292969 142.964844 204.417969 143.839844 203.34375 143.839844 L 195.277344 143.839844 Z M 190 131.25 L 190 160.140625 L 195.277344 160.140625 L 195.277344 148.820312 L 200.589844 148.820312 L 205.96875 160.144531 L 211.679688 160.144531 L 205.871094 148.371094 L 205.863281 148.367188 C 206.523438 148.261719 207.144531 148.042969 207.726562 147.71875 C 208.308594 147.390625 208.816406 146.972656 209.25 146.464844 C 209.683594 145.957031 210.019531 145.390625 210.25 144.765625 C 210.480469 144.136719 210.597656 143.492188 210.597656 142.824219 L 210.597656 137.386719 C 210.597656 136.984375 210.558594 136.585938 210.480469 136.1875 C 210.402344 135.792969 210.285156 135.410156 210.128906 135.039062 C 209.976562 134.664062 209.789062 134.3125 209.5625 133.976562 C 209.339844 133.640625 209.085938 133.332031 208.800781 133.046875 C 208.515625 132.761719 208.207031 132.507812 207.871094 132.285156 C 207.535156 132.058594 207.183594 131.871094 206.808594 131.714844 C 206.4375 131.5625 206.054688 131.445312 205.65625 131.367188 C 205.261719 131.289062 204.863281 131.25 204.460938 131.25 Z M 163.503906 131.25 L 163.503906 153.601562 C 163.527344 154.703125 163.964844 155.75 164.730469 156.542969 L 166.5 158.457031 C 167.492188 159.621094 168.929688 160.320312 170.457031 160.378906 L 177.296875 160.378906 C 178.824219 160.320312 180.257812 159.621094 181.25 158.457031 L 183.023438 156.542969 C 183.785156 155.75 184.222656 154.703125 184.246094 153.601562 L 184.246094 131.25 L 178.96875 131.25 L 178.96875 153.425781 L 177.054688 155.367188 L 170.695312 155.367188 L 168.785156 153.425781 L 168.785156 131.25 Z M 138.160156 131.25 L 138.160156 136.234375 L 146.015625 136.234375 L 146.015625 160.140625 L 151.292969 160.140625 L 151.292969 136.234375 L 159.144531 136.234375 L 159.144531 131.25 Z M 122.101562 149.039062 L 130.902344 149.039062 L 127.570312 137.101562 L 125.433594 137.101562 Z M 113.375 160.140625 L 121.808594 131.25 L 131.191406 131.25 L 139.625 160.140625 L 134 160.140625 L 132.300781 154.054688 L 120.703125 154.054688 L 119.003906 160.140625 Z M 88.175781 154.730469 L 93.289062 153.039062 C 93.585938 153.46875 93.925781 153.933594 94.851562 154.890625 C 95.101562 155.148438 95.601562 155.355469 95.964844 155.355469 L 103.820312 155.355469 C 104.796875 154.6875 105.496094 154.003906 105.882812 153.304688 L 105.882812 150.269531 C 105.882812 150.113281 105.835938 149.976562 105.742188 149.851562 C 105.648438 149.730469 105.527344 149.648438 105.378906 149.605469 L 92.9375 146.121094 C 92.367188 145.960938 91.839844 145.714844 91.351562 145.382812 C 90.859375 145.050781 90.4375 144.648438 90.078125 144.175781 C 89.722656 143.703125 89.449219 143.1875 89.261719 142.628906 C 89.074219 142.066406 88.976562 141.492188 88.976562 140.898438 L 88.976562 138.296875 C 88.976562 137.507812 89.132812 136.75 89.441406 136.023438 C 89.753906 135.296875 90.191406 134.660156 90.761719 134.113281 L 92.117188 132.816406 C 92.71875 132.242188 93.402344 131.800781 94.171875 131.488281 C 94.945312 131.179688 95.746094 131.023438 96.578125 131.023438 L 103.707031 131.023438 C 106.253906 131.023438 109.085938 133.5 110.460938 136.367188 C 110.53125 136.519531 110.609375 136.667969 110.691406 136.820312 L 105.625 138.261719 C 105.226562 137.683594 104.722656 137.097656 104.199219 136.53125 C 103.945312 136.253906 103.449219 136.035156 103.09375 136.035156 L 96.675781 136.035156 C 96.480469 136.035156 96.195312 136.132812 96.039062 136.25 C 95.628906 136.550781 95.25 136.804688 94.589844 137.550781 C 94.460938 137.695312 94.359375 137.976562 94.359375 138.171875 L 94.359375 140.570312 C 94.359375 140.816406 94.476562 140.972656 94.710938 141.042969 L 107.175781 144.6875 C 107.746094 144.855469 108.277344 145.109375 108.761719 145.445312 C 109.25 145.785156 109.671875 146.191406 110.027344 146.664062 C 110.382812 147.140625 110.65625 147.660156 110.84375 148.222656 C 111.03125 148.785156 111.125 149.363281 111.125 149.957031 L 111.125 153.253906 C 111.125 154.636719 110.652344 155.832031 109.710938 156.84375 L 108.503906 158.144531 C 107.84375 158.855469 107.066406 159.40625 106.171875 159.796875 C 105.28125 160.183594 104.347656 160.378906 103.375 160.378906 L 95.542969 160.378906 C 94.21875 160.25 92.996094 159.820312 91.882812 159.089844 C 90.765625 158.359375 89.882812 157.414062 89.234375 156.25 Z M 88.175781 154.730469 " fill-opacity="1" fill-rule="nonzero"/></svg>