<svg xmlns="http://www.w3.org/2000/svg" xmlns:xlink="http://www.w3.org/1999/xlink" width="500" zoomAndPan="magnify" viewBox="0 0 375 374.999991" height="500" preserveAspectRatio="xMidYMid meet" version="1.0"><defs><clipPath id="2f0222567a"><path d="M 295 67 L 343 67 L 343 105 L 295 105 Z M 295 67 " clip-rule="nonzero"/></clipPath><clipPath id="0a4206a892"><path d="M 342.285156 71.394531 C 342.132812 71.875 342.007812 72.355469 341.855469 72.808594 C 340.59375 76.769531 338.953125 80.632812 336.882812 84.238281 C 334.839844 87.796875 332.367188 91.152344 329.515625 94.082031 C 328.003906 95.644531 326.335938 97.058594 324.59375 98.371094 C 322.957031 99.632812 321.238281 100.769531 319.398438 101.703125 C 315.058594 103.945312 309.933594 105.257812 305.113281 103.847656 C 300.800781 102.585938 296.839844 99.277344 295.777344 94.761719 L 301.859375 93.097656 C 301.9375 93.425781 302.035156 93.726562 302.164062 94.054688 C 302.363281 94.460938 302.589844 94.835938 302.84375 95.191406 C 303.222656 95.621094 303.601562 96.023438 304.054688 96.378906 C 304.636719 96.78125 305.265625 97.160156 305.898438 97.460938 C 306.628906 97.738281 307.386719 97.941406 308.167969 98.09375 C 309.050781 98.167969 309.960938 98.167969 310.84375 98.066406 C 312.207031 97.839844 313.519531 97.460938 314.804688 96.957031 C 317.050781 95.972656 319.144531 94.660156 321.113281 93.171875 C 323.6875 91.128906 326.007812 88.78125 328.054688 86.207031 C 328.558594 85.550781 329.035156 84.894531 329.492188 84.214844 C 331.308594 81.539062 332.820312 78.6875 334.109375 75.734375 C 334.917969 73.765625 335.621094 71.75 336.230469 69.703125 C 336.457031 68.898438 336.984375 68.265625 337.667969 67.8125 C 338.375 67.359375 339.28125 67.308594 340.089844 67.484375 C 340.847656 67.660156 341.601562 68.292969 341.980469 68.921875 C 342.386719 69.652344 342.511719 70.613281 342.285156 71.394531 Z M 342.285156 71.394531 " clip-rule="nonzero"/></clipPath><clipPath id="7ee65410e2"><path d="M 242.636719 12.605469 L 345 12.605469 L 345 85 L 242.636719 85 Z M 242.636719 12.605469 " clip-rule="nonzero"/></clipPath><clipPath id="e513875c49"><path d="M 344.882812 54.4375 C 344.730469 60.167969 343.875 65.894531 342.285156 71.394531 C 341.804688 73.085938 340.089844 73.996094 338.398438 73.589844 C 336.757812 73.210938 335.75 71.292969 336.203125 69.703125 C 337.035156 66.828125 337.667969 63.902344 338.070312 60.921875 C 338.703125 55.953125 338.777344 50.878906 338.171875 45.882812 C 337.667969 42.375 336.785156 38.917969 335.445312 35.613281 C 334.410156 33.265625 333.148438 31.046875 331.609375 28.976562 C 330.171875 27.1875 328.53125 25.546875 326.742188 24.105469 C 325.050781 22.84375 323.207031 21.761719 321.265625 20.902344 C 319.523438 20.222656 317.730469 19.714844 315.890625 19.414062 C 314.351562 19.238281 312.8125 19.210938 311.273438 19.386719 C 309.632812 19.640625 308.042969 20.121094 306.503906 20.726562 C 304.6875 21.53125 302.996094 22.542969 301.40625 23.703125 C 299.816406 24.964844 298.402344 26.402344 297.140625 27.96875 C 295.828125 29.707031 294.742188 31.601562 293.886719 33.59375 C 292.574219 36.851562 291.84375 40.28125 291.363281 43.738281 C 291.109375 45.605469 290.957031 47.472656 290.859375 49.367188 C 290.65625 53.101562 290.65625 56.886719 291.058594 60.621094 C 291.160156 61.429688 290.65625 62.285156 290.125 62.839844 C 289.671875 63.347656 288.964844 63.625 288.308594 63.699219 C 287.601562 63.800781 286.945312 63.671875 286.289062 63.320312 C 285.660156 62.992188 285.28125 62.414062 285.003906 61.78125 C 285.003906 61.804688 285.003906 61.804688 285.027344 61.832031 C 285.027344 61.804688 285.003906 61.804688 285.003906 61.78125 C 284.976562 61.707031 284.929688 61.628906 284.902344 61.554688 C 284.699219 61.074219 284.472656 60.59375 284.246094 60.117188 C 282.253906 55.824219 279.882812 51.664062 277.003906 47.878906 C 275.414062 45.882812 273.671875 43.992188 271.65625 42.402344 C 270.59375 41.621094 269.484375 40.9375 268.273438 40.382812 C 267.464844 40.082031 266.660156 39.851562 265.824219 39.703125 C 265.042969 39.625 264.234375 39.625 263.429688 39.703125 C 262.621094 39.851562 261.839844 40.054688 261.082031 40.359375 C 259.871094 40.914062 258.710938 41.621094 257.625 42.402344 C 256.339844 43.4375 255.203125 44.597656 254.167969 45.882812 C 252.980469 47.5 251.972656 49.214844 251.164062 51.058594 C 250.28125 53.226562 249.675781 55.523438 249.324219 57.84375 C 248.816406 62.085938 249.019531 66.375 249.574219 70.613281 C 250.03125 73.816406 250.636719 76.972656 251.242188 80.152344 C 251.570312 81.894531 250.761719 83.484375 249.046875 84.039062 C 248.289062 84.289062 247.277344 84.113281 246.621094 83.710938 C 245.992188 83.332031 245.3125 82.574219 245.183594 81.816406 C 244.933594 80.53125 244.679688 79.242188 244.453125 77.957031 C 243.46875 72.632812 242.636719 67.179688 242.761719 61.757812 C 242.835938 59.183594 243.089844 56.582031 243.644531 54.058594 C 244.125 51.890625 244.882812 49.796875 245.789062 47.75 C 249.019531 40.710938 255.582031 34.175781 263.605469 33.417969 C 269.234375 32.886719 274.480469 36.117188 278.34375 39.902344 C 280.738281 42.25 282.808594 44.925781 284.652344 47.75 C 284.929688 43.511719 285.558594 39.273438 286.695312 35.183594 C 288.964844 27.085938 294.339844 19.894531 301.859375 15.980469 C 304.914062 14.390625 308.144531 13.355469 311.574219 13.054688 C 316.34375 12.625 321.164062 13.8125 325.429688 15.90625 C 329.617188 17.949219 333.351562 21.054688 336.230469 24.710938 C 339.507812 28.875 341.804688 33.671875 343.167969 38.792969 C 344.53125 43.863281 345.035156 49.191406 344.882812 54.4375 Z M 344.882812 54.4375 " clip-rule="nonzero"/></clipPath><clipPath id="496fb4b26f"><path d="M 301 40 L 326 40 L 326 61 L 301 61 Z M 301 40 " clip-rule="nonzero"/></clipPath><clipPath id="f3a2d8e2cb"><path d="M 325.730469 43.914062 C 325.554688 47.800781 325.351562 51.714844 325.175781 55.597656 C 325.125 56.457031 324.824219 57.1875 324.242188 57.820312 C 323.660156 58.449219 322.828125 58.703125 322.023438 58.753906 C 321.238281 58.777344 320.332031 58.375 319.800781 57.820312 C 319.246094 57.265625 318.84375 56.382812 318.867188 55.597656 C 319.042969 51.714844 319.246094 47.800781 319.421875 43.914062 C 319.472656 43.058594 319.777344 42.324219 320.355469 41.695312 C 320.9375 41.0625 321.769531 40.8125 322.578125 40.761719 C 323.359375 40.734375 324.269531 41.140625 324.796875 41.695312 C 325.351562 42.226562 325.757812 43.109375 325.730469 43.914062 Z M 307.109375 44.824219 C 306.679688 44.144531 306.023438 43.585938 305.214844 43.386719 C 304.460938 43.183594 303.449219 43.257812 302.792969 43.714844 C 302.113281 44.144531 301.53125 44.800781 301.355469 45.605469 C 301.179688 46.414062 301.230469 47.320312 301.683594 48.027344 C 304.082031 51.839844 306.476562 55.625 308.851562 59.433594 C 309.277344 60.117188 309.933594 60.671875 310.742188 60.871094 C 311.5 61.074219 312.507812 61 313.164062 60.542969 C 313.847656 60.117188 314.425781 59.460938 314.601562 58.652344 C 314.78125 57.84375 314.730469 56.9375 314.273438 56.230469 C 311.902344 52.417969 309.503906 48.632812 307.109375 44.824219 Z M 307.109375 44.824219 " clip-rule="nonzero"/></clipPath><clipPath id="080841f597"><path d="M 295 66 L 358.886719 66 L 358.886719 137.855469 L 295 137.855469 Z M 295 66 " clip-rule="nonzero"/></clipPath><clipPath id="be16452de3"><path d="M 357.550781 101.296875 C 356.972656 104.226562 355.988281 107.027344 354.800781 109.777344 C 353.890625 111.871094 352.808594 113.914062 351.597656 115.832031 C 349.046875 119.792969 345.917969 123.429688 342.335938 126.480469 C 338.75 129.535156 334.765625 132.132812 330.449219 134.027344 C 328.179688 135.035156 325.855469 135.894531 323.460938 136.550781 C 321.0625 137.207031 318.617188 137.609375 316.140625 137.886719 C 315.335938 137.988281 314.476562 137.484375 313.921875 136.953125 C 313.289062 136.371094 313.039062 135.539062 312.988281 134.734375 C 312.960938 133.949219 313.367188 133.042969 313.921875 132.511719 C 314.199219 132.210938 314.550781 131.980469 314.929688 131.855469 C 315.308594 131.652344 315.714844 131.578125 316.140625 131.578125 C 316.320312 131.554688 316.496094 131.527344 316.671875 131.503906 C 320.230469 130.996094 323.6875 130.039062 326.992188 128.675781 C 330.375 127.210938 333.578125 125.320312 336.53125 123.101562 C 339.359375 120.878906 341.929688 118.304688 344.152344 115.480469 C 346.222656 112.753906 347.9375 109.800781 349.300781 106.671875 C 350.460938 103.820312 351.320312 100.816406 351.773438 97.765625 C 352.050781 95.34375 352.074219 92.871094 351.796875 90.445312 C 351.496094 88.402344 350.941406 86.410156 350.15625 84.492188 C 349.402344 82.800781 348.492188 81.1875 347.382812 79.722656 C 346.398438 78.511719 345.289062 77.375 344.078125 76.390625 C 342.816406 75.457031 341.476562 74.699219 340.0625 74.046875 C 338.296875 73.339844 336.457031 72.859375 334.5625 72.554688 C 332.316406 72.277344 330.019531 72.304688 327.773438 72.582031 C 325.957031 72.859375 324.191406 73.3125 322.425781 73.816406 C 320.582031 74.371094 318.742188 75.003906 316.949219 75.734375 C 313.667969 77.148438 310.515625 78.890625 307.664062 81.058594 C 306.453125 82.019531 305.34375 83.078125 304.359375 84.265625 C 303.652344 85.25 303.046875 86.285156 302.542969 87.367188 C 302.1875 88.277344 301.9375 89.183594 301.757812 90.144531 C 301.683594 90.976562 301.65625 91.785156 301.757812 92.617188 C 301.785156 92.769531 301.808594 92.945312 301.859375 93.097656 C 302.0625 93.953125 301.960938 94.761719 301.53125 95.519531 C 301.152344 96.25 300.421875 96.730469 299.640625 96.957031 C 298.882812 97.210938 297.871094 97.03125 297.21875 96.628906 C 296.5625 96.25 295.929688 95.492188 295.777344 94.738281 C 295.476562 93.425781 295.324219 92.035156 295.398438 90.675781 C 295.726562 85.171875 298.730469 80.203125 302.945312 76.769531 C 305.089844 75.027344 307.359375 73.488281 309.808594 72.152344 C 312.28125 70.816406 314.855469 69.703125 317.503906 68.746094 C 322.375 66.980469 327.574219 65.769531 332.796875 66.046875 C 335.496094 66.195312 338.195312 66.652344 340.746094 67.535156 C 342.109375 68.015625 343.445312 68.59375 344.730469 69.277344 C 346.019531 69.957031 347.179688 70.789062 348.316406 71.699219 C 352.402344 74.902344 355.253906 79.519531 356.871094 84.390625 C 358.660156 89.867188 358.6875 95.722656 357.550781 101.296875 Z M 357.550781 101.296875 " clip-rule="nonzero"/></clipPath></defs><g clip-path="url(#2f0222567a)"><g clip-path="url(#0a4206a892)"><path fill="#e66222" d="M 295.777344 67.308594 L 295.777344 105.257812 L 342.511719 105.257812 L 342.511719 67.308594 Z M 295.777344 67.308594 " fill-opacity="1" fill-rule="nonzero"/></g></g><g clip-path="url(#7ee65410e2)"><g clip-path="url(#e513875c49)"><path fill="#e66222" d="M 242.636719 12.625 L 242.636719 84.289062 L 345.035156 84.289062 L 345.035156 12.625 Z M 242.636719 12.625 " fill-opacity="1" fill-rule="nonzero"/></g></g><g clip-path="url(#496fb4b26f)"><g clip-path="url(#f3a2d8e2cb)"><path fill="#e66222" d="M 301.179688 40.734375 L 301.179688 61.074219 L 325.757812 61.074219 L 325.757812 40.734375 Z M 301.179688 40.734375 " fill-opacity="1" fill-rule="nonzero"/></g></g><g clip-path="url(#080841f597)"><g clip-path="url(#be16452de3)"><path fill="#e66222" d="M 295.324219 65.769531 L 295.324219 137.855469 L 358.6875 137.855469 L 358.6875 65.769531 Z M 295.324219 65.769531 " fill-opacity="1" fill-rule="nonzero"/></g></g></svg>