<svg xmlns="http://www.w3.org/2000/svg" xmlns:xlink="http://www.w3.org/1999/xlink" width="500" zoomAndPan="magnify" viewBox="0 0 375 374.999991" height="500" preserveAspectRatio="xMidYMid meet" version="1.0"><defs><clipPath id="b144eaf633"><path d="M 258 69 L 373 69 L 373 230 L 258 230 Z M 258 69 " clip-rule="nonzero"/></clipPath><clipPath id="1903345bef"><path d="M 267.148438 -57.347656 L 408.167969 117.976562 L 184.339844 298.011719 L 43.320312 122.6875 Z M 267.148438 -57.347656 " clip-rule="nonzero"/></clipPath><clipPath id="6f25ac3626"><path d="M 408.117188 117.914062 L 267.097656 -57.410156 L 43.265625 122.625 L 184.289062 297.949219 Z M 408.117188 117.914062 " clip-rule="nonzero"/></clipPath><clipPath id="f99e517b43"><path d="M 306.734375 76.8125 C 305.414062 78.449219 305.128906 80.660156 305.277344 82.683594 C 305.511719 84.71875 306.882812 86.832031 308.488281 88.011719 C 310.226562 89.25 312.285156 89.65625 314.363281 89.46875 C 318.140625 89.148438 321.882812 88.777344 325.664062 88.457031 C 330.789062 87.960938 335.902344 87.558594 341.027344 87.0625 C 335.5 91.671875 330.128906 96.570312 325.097656 101.6875 C 316.894531 109.9375 309.234375 118.652344 302.246094 127.898438 C 295.628906 136.683594 289.554688 145.9375 284.214844 155.589844 C 278.59375 165.714844 273.535156 176.128906 269.261719 186.90625 C 265.027344 197.726562 261.675781 208.832031 259.027344 220.191406 C 258.582031 222.199219 259.609375 224.503906 260.71875 226.085938 C 261.996094 227.777344 264.085938 228.734375 266.113281 229 C 268.089844 229.304688 270.503906 228.515625 272.007812 227.308594 C 272.898438 226.675781 273.535156 225.832031 273.964844 224.828125 C 274.515625 223.972656 274.84375 223.050781 274.960938 221.964844 C 275.941406 217.960938 277.015625 213.964844 278.21875 210.03125 C 282.753906 195.175781 288.746094 180.792969 296.082031 167.0625 C 298.125 163.355469 300.261719 159.660156 302.492188 155.972656 C 311.019531 142.1875 320.917969 129.285156 331.96875 117.507812 C 333.929688 115.4375 335.980469 113.375 338.019531 111.40625 C 343.074219 106.515625 348.378906 101.839844 353.792969 97.402344 C 353.121094 109.066406 353.34375 120.921875 354.675781 132.625 C 354.945312 134.800781 356.253906 136.632812 357.890625 137.953125 C 359.53125 139.273438 361.738281 139.558594 363.761719 139.410156 C 365.796875 139.175781 367.910156 137.804688 369.089844 136.199219 C 370.28125 134.5 370.734375 132.402344 370.550781 130.328125 C 369.941406 124.960938 369.617188 119.535156 369.472656 114.128906 C 369.417969 111.703125 369.449219 109.285156 369.484375 106.867188 C 369.71875 97.117188 370.726562 87.40625 372.496094 77.824219 C 372.953125 75.3125 371.710938 72.847656 369.972656 71.199219 C 368.113281 69.398438 365.894531 68.792969 363.304688 69.058594 C 359.523438 69.382812 355.785156 69.75 352.003906 70.074219 C 338.71875 71.28125 325.339844 72.480469 312.054688 73.6875 C 309.898438 73.773438 308.003906 75.214844 306.734375 76.8125 Z M 306.734375 76.8125 " clip-rule="nonzero"/></clipPath><clipPath id="6bfb70b230"><path d="M 195 89 L 280 89 L 280 229 L 195 229 Z M 195 89 " clip-rule="nonzero"/></clipPath><clipPath id="f0fde20f91"><path d="M 267.148438 -57.347656 L 408.167969 117.976562 L 184.339844 298.011719 L 43.320312 122.6875 Z M 267.148438 -57.347656 " clip-rule="nonzero"/></clipPath><clipPath id="51e242b223"><path d="M 408.117188 117.914062 L 267.097656 -57.410156 L 43.265625 122.625 L 184.289062 297.949219 Z M 408.117188 117.914062 " clip-rule="nonzero"/></clipPath><clipPath id="f7a0e15b32"><path d="M 198.484375 102.394531 C 196.8125 103.902344 195.855469 105.582031 195.570312 107.789062 C 195.246094 109.945312 196.074219 112 197.261719 113.683594 C 198.457031 115.273438 200.707031 116.429688 202.65625 116.597656 C 204.550781 116.800781 207.128906 116.214844 208.546875 114.90625 C 210.878906 112.785156 213.320312 110.902344 215.925781 109.21875 C 218.070312 107.992188 220.324219 107 222.6875 106.253906 C 224.804688 105.707031 226.988281 105.347656 229.195312 105.222656 C 230.789062 105.257812 232.414062 105.433594 233.980469 105.742188 C 235.265625 106.109375 236.582031 106.617188 237.796875 107.207031 C 239.34375 108.105469 240.78125 109.175781 242.15625 110.375 C 244.128906 112.414062 245.808594 114.605469 247.332031 117.011719 C 249.71875 121.105469 251.617188 125.515625 253.332031 129.902344 C 254.898438 134.003906 256.324219 138.132812 257.558594 142.332031 C 258.277344 144.964844 258.957031 147.550781 259.535156 150.21875 C 261.777344 160.285156 263.039062 170.5625 263.335938 180.871094 C 263.40625 183.621094 263.332031 186.398438 263.21875 189.128906 C 263.042969 194.542969 262.503906 199.921875 261.785156 205.28125 C 261.402344 207.980469 260.980469 210.628906 260.414062 213.308594 C 260.136719 214.601562 259.859375 215.898438 259.582031 217.191406 C 259.382812 218.175781 259.054688 219.097656 259.078125 220.152344 C 258.972656 221.554688 259.144531 222.898438 259.691406 224.191406 C 260.082031 224.785156 260.425781 225.414062 260.820312 226.003906 C 262.097656 227.695312 264.1875 228.65625 266.210938 228.917969 C 268.191406 229.226562 270.605469 228.4375 272.105469 227.230469 C 273.507812 226.101562 275.085938 223.761719 275.019531 221.835938 C 275.039062 220.832031 275.328125 219.859375 275.523438 218.875 C 277.992188 207.90625 279.21875 196.617188 279.246094 185.382812 C 279.296875 173.558594 278.292969 161.753906 275.84375 150.207031 C 274.585938 144.132812 272.914062 138.058594 271.042969 132.144531 C 269.304688 126.703125 267.28125 121.320312 264.871094 116.171875 C 263.308594 112.894531 261.554688 109.691406 259.550781 106.6875 C 257.949219 104.183594 256.105469 101.792969 253.957031 99.730469 C 252.46875 98.289062 251.019531 96.898438 249.371094 95.671875 C 247.722656 94.441406 245.863281 93.464844 244.007812 92.484375 C 241.152344 90.988281 237.910156 90.132812 234.71875 89.652344 C 228.296875 88.636719 221.703125 89.65625 215.628906 91.738281 C 212.351562 92.890625 209.4375 94.492188 206.453125 96.316406 C 203.617188 98.019531 200.925781 100.101562 198.484375 102.394531 Z M 198.484375 102.394531 " clip-rule="nonzero"/></clipPath><clipPath id="5f500cb3a0"><path d="M 179 3 L 305 3 L 305 81 L 179 81 Z M 179 3 " clip-rule="nonzero"/></clipPath><clipPath id="dbe7569d20"><path d="M 267.148438 -57.347656 L 408.167969 117.976562 L 184.339844 298.011719 L 43.320312 122.6875 Z M 267.148438 -57.347656 " clip-rule="nonzero"/></clipPath><clipPath id="6c3f812178"><path d="M 408.117188 117.914062 L 267.097656 -57.410156 L 43.265625 122.625 L 184.289062 297.949219 Z M 408.117188 117.914062 " clip-rule="nonzero"/></clipPath><clipPath id="3c7d5b4b02"><path d="M 245.410156 8.355469 C 243.292969 12.285156 241.226562 16.171875 239.109375 20.097656 C 231.726562 33.871094 224.289062 47.679688 216.902344 61.453125 C 215.933594 63.21875 216.351562 65.6875 217.070312 67.5 C 217.855469 69.503906 219.617188 70.972656 221.582031 71.78125 C 223.371094 72.570312 225.859375 72.382812 227.632812 71.613281 C 228.683594 71.179688 229.523438 70.585938 230.214844 69.703125 C 231.023438 68.96875 231.574219 68.113281 231.914062 67.101562 C 234.027344 63.171875 236.09375 59.285156 238.210938 55.359375 C 245.597656 41.585938 253.03125 27.773438 260.417969 14.003906 C 261.386719 12.234375 260.96875 9.769531 260.253906 7.957031 C 259.464844 5.953125 257.707031 4.480469 255.738281 3.675781 C 253.949219 2.886719 251.464844 3.074219 249.691406 3.839844 C 248.636719 4.277344 247.796875 4.871094 247.105469 5.753906 C 246.347656 6.449219 245.796875 7.300781 245.410156 8.355469 Z M 186.171875 9.515625 C 188.207031 9.28125 190.40625 9.65625 192.042969 10.976562 C 193.722656 12.34375 194.992188 14.125 195.257812 16.300781 C 196.890625 26.941406 197.269531 37.761719 196.605469 48.515625 C 196.480469 50.511719 195.195312 52.703125 193.691406 53.910156 C 192.140625 55.160156 189.777344 55.90625 187.796875 55.601562 C 183.351562 54.890625 180.414062 51.238281 180.675781 46.742188 C 180.875 43.203125 180.984375 39.652344 180.917969 36.082031 C 180.769531 30.261719 180.265625 24.40625 179.375 18.691406 C 179.089844 16.695312 179.605469 14.46875 180.835938 12.820312 C 181.972656 11.160156 184.136719 9.753906 186.171875 9.515625 Z M 302.238281 41.609375 C 303.476562 43.25 304.292969 45.394531 303.929688 47.5 C 303.8125 48.171875 303.601562 48.835938 303.484375 49.507812 C 302.976562 50.824219 302.117188 52.007812 301.015625 52.894531 C 292.632812 61.535156 284.257812 70.082031 275.875 78.71875 C 274.535156 80.128906 271.789062 80.605469 269.984375 80.410156 C 267.996094 80.195312 265.785156 79.085938 264.589844 77.496094 C 263.351562 75.855469 262.53125 73.710938 262.898438 71.601562 C 263.015625 70.929688 263.226562 70.265625 263.34375 69.59375 C 263.851562 68.28125 264.710938 67.09375 265.8125 66.207031 C 274.195312 57.570312 282.570312 49.023438 290.953125 40.382812 C 292.292969 38.976562 295.039062 38.496094 296.84375 38.691406 C 298.832031 38.910156 301.039062 40.015625 302.238281 41.609375 Z M 302.238281 41.609375 " clip-rule="nonzero"/></clipPath><clipPath id="df06bf2ca8"><path d="M 66 70 L 222 70 L 222 215 L 66 215 Z M 66 70 " clip-rule="nonzero"/></clipPath><clipPath id="25b73a91f4"><path d="M 267.148438 -57.347656 L 408.167969 117.976562 L 184.339844 298.011719 L 43.320312 122.6875 Z M 267.148438 -57.347656 " clip-rule="nonzero"/></clipPath><clipPath id="b21d701d9e"><path d="M 408.117188 117.914062 L 267.097656 -57.410156 L 43.265625 122.625 L 184.289062 297.949219 Z M 408.117188 117.914062 " clip-rule="nonzero"/></clipPath><clipPath id="74294e7507"><path d="M 128.359375 75.058594 C 135.042969 72.402344 142.21875 70.667969 149.410156 70.488281 C 152.941406 70.367188 156.402344 70.46875 159.914062 70.941406 C 163.375 71.453125 166.808594 72.238281 170.171875 73.242188 C 176.367188 75.101562 182.222656 77.972656 187.597656 81.480469 C 193.0625 84.996094 198.019531 89.417969 202.382812 94.230469 C 211.316406 104.105469 216.976562 116.367188 219.589844 129.351562 C 220.921875 136.027344 221.28125 142.828125 221.046875 149.609375 C 220.804688 156.480469 219.617188 163.203125 217.941406 169.828125 C 216.421875 175.832031 214.230469 181.714844 211.566406 187.316406 C 207.917969 194.871094 203.582031 202.394531 197.089844 207.949219 C 195.175781 209.566406 193.015625 210.976562 190.789062 212.109375 C 188.945312 213.09375 186.921875 213.652344 184.898438 214.210938 C 183.394531 214.59375 181.859375 214.839844 180.304688 214.851562 C 178.199219 214.898438 176.234375 214.914062 174.1875 214.417969 C 172.890625 214.140625 171.597656 213.863281 170.371094 213.363281 C 169.054688 212.855469 167.808594 212.128906 166.605469 211.449219 C 164.757812 210.382812 163.1875 208.839844 161.847656 207.277344 C 158.972656 203.90625 157.355469 199.4375 156.773438 195.125 C 155.726562 187.0625 157.703125 178.964844 159.6875 171.183594 C 161.484375 164.300781 163.683594 157.503906 166.40625 150.945312 C 172.105469 137.128906 179.753906 123.890625 189.183594 112.351562 C 190.390625 110.882812 191.640625 109.464844 192.890625 108.046875 C 191.089844 105.703125 189.046875 103.472656 186.945312 101.371094 C 183.167969 97.902344 179.015625 94.894531 174.625 92.40625 C 170.6875 90.382812 166.523438 88.789062 162.214844 87.636719 C 158.511719 86.824219 154.71875 86.410156 150.886719 86.363281 C 147.035156 86.492188 143.226562 87.085938 139.507812 88.097656 C 134.738281 89.542969 130.128906 91.601562 125.882812 94.109375 C 120.054688 97.726562 114.78125 102.132812 110 107.050781 C 102.648438 115.027344 96.59375 124.097656 91.140625 133.511719 C 89.671875 136.09375 88.207031 138.675781 86.828125 141.265625 C 85.222656 144.289062 83.613281 147.3125 82.007812 150.335938 C 81.667969 151.351562 81.070312 152.246094 80.308594 152.9375 C 79.621094 153.824219 78.777344 154.417969 77.726562 154.851562 C 75.953125 155.617188 73.515625 155.765625 71.679688 155.019531 C 69.761719 154.171875 67.953125 152.742188 67.164062 150.738281 C 66.445312 148.921875 66.070312 146.507812 66.996094 144.6875 C 74.492188 130.335938 82.007812 115.800781 92.195312 103.15625 C 97.101562 97.066406 102.605469 91.402344 108.75 86.542969 C 114.738281 81.894531 121.347656 77.8125 128.359375 75.058594 Z M 187.738281 143.347656 C 183.140625 152.074219 179.3125 161.253906 176.417969 170.667969 C 175.632812 173.28125 174.9375 175.898438 174.292969 178.480469 C 173.339844 182.625 172.527344 186.738281 172.480469 190.980469 C 172.574219 192.226562 172.714844 193.429688 172.988281 194.691406 C 173.203125 195.261719 173.414062 195.835938 173.71875 196.414062 C 174 196.765625 174.28125 197.117188 174.523438 197.414062 C 174.8125 197.675781 175.15625 197.894531 175.457031 198.066406 C 175.9375 198.253906 176.421875 198.445312 176.863281 198.582031 C 177.535156 198.703125 178.257812 198.78125 178.988281 198.769531 C 179.910156 198.683594 180.792969 198.554688 181.6875 198.328125 C 182.636719 197.976562 183.5 197.613281 184.421875 197.117188 C 185.851562 196.132812 187.152344 195.085938 188.382812 193.847656 C 190.984375 190.933594 193.074219 187.6875 195 184.242188 C 198.441406 177.761719 201.0625 170.875 202.890625 163.71875 C 204.367188 157.253906 205.132812 150.625 205.074219 143.992188 C 204.878906 138.214844 204.082031 132.511719 202.542969 126.910156 C 202.097656 125.535156 201.652344 124.164062 201.117188 122.78125 C 196.066406 129.3125 191.664062 136.234375 187.738281 143.347656 Z M 187.738281 143.347656 " clip-rule="nonzero"/></clipPath></defs><g clip-path="url(#b144eaf633)"><g clip-path="url(#1903345bef)"><g clip-path="url(#6f25ac3626)"><g clip-path="url(#f99e517b43)"><path fill="#5cb6f9" d="M 451.34375 166.253906 L 303.507812 285.160156 L 180.191406 131.847656 L 328.023438 12.9375 Z M 451.34375 166.253906 " fill-opacity="1" fill-rule="nonzero"/></g></g></g></g><g clip-path="url(#6bfb70b230)"><g clip-path="url(#f0fde20f91)"><g clip-path="url(#51e242b223)"><g clip-path="url(#f7a0e15b32)"><path fill="#5cb6f9" d="M 347.957031 174 L 228.261719 270.273438 L 126.582031 143.863281 L 246.277344 47.585938 Z M 347.957031 174 " fill-opacity="1" fill-rule="nonzero"/></g></g></g></g><g clip-path="url(#5f500cb3a0)"><g clip-path="url(#dbe7569d20)"><g clip-path="url(#6c3f812178)"><g clip-path="url(#3c7d5b4b02)"><path fill="#5cb6f9" d="M 342.25 50.078125 L 228.273438 141.753906 L 141.132812 33.417969 L 255.113281 -58.261719 Z M 342.25 50.078125 " fill-opacity="1" fill-rule="nonzero"/></g></g></g></g><g clip-path="url(#df06bf2ca8)"><g clip-path="url(#25b73a91f4)"><g clip-path="url(#b21d701d9e)"><g clip-path="url(#74294e7507)"><path fill="#5cb6f9" d="M 291.875 158.132812 L 127.039062 290.714844 L -4.523438 127.148438 L 160.308594 -5.433594 Z M 291.875 158.132812 " fill-opacity="1" fill-rule="nonzero"/></g></g></g></g></svg>